<?xml version="1.0" encoding="UTF-8" standalone="no"?>
<!DOCTYPE svg PUBLIC "-//W3C//DTD SVG 1.1//EN" "http://www.w3.org/Graphics/SVG/1.1/DTD/svg11.dtd">
<svg width="100%" height="100%" viewBox="0 0 2048 2048" version="1.1" xmlns="http://www.w3.org/2000/svg" xmlns:xlink="http://www.w3.org/1999/xlink" xml:space="preserve" xmlns:serif="http://www.serif.com/" style="fill-rule:evenodd;clip-rule:evenodd;stroke-linecap:round;stroke-linejoin:round;stroke-miterlimit:1.5;">
    <g id="レイヤー3">
        <g transform="matrix(0.555337,0,0,0.606646,846.842,859.944)">
            <rect x="-49.775" y="-67.163" width="368.785" height="337.594" style="stroke:black;stroke-width:6.88px;"/>
        </g>
        <g transform="matrix(0.555337,0,0,0.606646,642.042,859.944)">
            <rect x="-49.775" y="-67.163" width="368.785" height="337.594" style="stroke:black;stroke-width:6.88px;"/>
        </g>
        <g transform="matrix(0.555337,0,0,0.606646,27.642,859.944)">
            <rect x="-49.775" y="-67.163" width="368.785" height="337.594" style="stroke:black;stroke-width:6.88px;"/>
        </g>
        <g transform="matrix(0.555337,0,0,0.606646,642.042,655.144)">
            <rect x="-49.775" y="-67.163" width="368.785" height="337.594" style="stroke:black;stroke-width:6.88px;"/>
        </g>
        <g transform="matrix(0.555337,0,0,0.606646,437.242,655.144)">
            <rect x="-49.775" y="-67.163" width="368.785" height="337.594" style="stroke:black;stroke-width:6.88px;"/>
        </g>
        <g transform="matrix(0.555337,0,0,0.606646,232.442,655.144)">
            <rect x="-49.775" y="-67.163" width="368.785" height="337.594" style="stroke:black;stroke-width:6.88px;"/>
        </g>
        <g transform="matrix(0.555337,0,0,0.606646,27.642,655.144)">
            <rect x="-49.775" y="-67.163" width="368.785" height="337.594" style="stroke:black;stroke-width:6.88px;"/>
        </g>
        <g transform="matrix(0.555337,0,0,0.606646,846.842,450.344)">
            <rect x="-49.775" y="-67.163" width="368.785" height="337.594" style="stroke:black;stroke-width:6.88px;"/>
        </g>
        <g transform="matrix(0.555337,0,0,0.606646,232.442,450.344)">
            <rect x="-49.775" y="-67.163" width="368.785" height="337.594" style="stroke:black;stroke-width:6.88px;"/>
        </g>
        <g transform="matrix(0.555337,0,0,0.606646,27.642,450.344)">
            <rect x="-49.775" y="-67.163" width="368.785" height="337.594" style="stroke:black;stroke-width:6.88px;"/>
        </g>
        <g transform="matrix(0.555337,0,0,0.606646,846.842,245.544)">
            <rect x="-49.775" y="-67.163" width="368.785" height="337.594" style="stroke:black;stroke-width:6.88px;"/>
        </g>
        <g transform="matrix(0.555337,0,0,0.606646,642.042,245.544)">
            <rect x="-49.775" y="-67.163" width="368.785" height="337.594" style="stroke:black;stroke-width:6.88px;"/>
        </g>
        <g transform="matrix(0.555337,0,0,0.606646,27.642,245.544)">
            <rect x="-49.775" y="-67.163" width="368.785" height="337.594" style="stroke:black;stroke-width:6.88px;"/>
        </g>
        <g transform="matrix(0.555337,0,0,0.606646,642.042,40.744)">
            <rect x="-49.775" y="-67.163" width="368.785" height="337.594" style="stroke:black;stroke-width:6.88px;"/>
        </g>
        <g transform="matrix(0.555337,0,0,0.606646,437.242,40.744)">
            <rect x="-49.775" y="-67.163" width="368.785" height="337.594" style="stroke:black;stroke-width:6.88px;"/>
        </g>
        <g transform="matrix(0.555337,0,0,0.606646,232.442,40.744)">
            <rect x="-49.775" y="-67.163" width="368.785" height="337.594" style="stroke:black;stroke-width:6.88px;"/>
        </g>
        <g transform="matrix(0.555337,0,0,0.606646,27.642,40.744)">
            <rect x="-49.775" y="-67.163" width="368.785" height="337.594" style="stroke:black;stroke-width:6.88px;"/>
        </g>
        <g transform="matrix(0.555337,0,0,0.606646,642.042,1474.34)">
            <rect x="-49.775" y="-67.163" width="368.785" height="337.594" style="stroke:black;stroke-width:6.88px;"/>
        </g>
        <g transform="matrix(0.555337,0,0,0.606646,437.242,1474.34)">
            <rect x="-49.775" y="-67.163" width="368.785" height="337.594" style="stroke:black;stroke-width:6.88px;"/>
        </g>
        <g transform="matrix(0.555337,0,0,0.606646,27.642,1474.34)">
            <rect x="-49.775" y="-67.163" width="368.785" height="337.594" style="stroke:black;stroke-width:6.88px;"/>
        </g>
        <g transform="matrix(0.555337,0,0,0.606646,846.842,1269.54)">
            <rect x="-49.775" y="-67.163" width="368.785" height="337.594" style="stroke:black;stroke-width:6.88px;"/>
        </g>
        <g transform="matrix(0.555337,0,0,0.606646,437.242,1269.54)">
            <rect x="-49.775" y="-67.163" width="368.785" height="337.594" style="stroke:black;stroke-width:6.88px;"/>
        </g>
        <g transform="matrix(0.555337,0,0,0.606646,232.442,1269.54)">
            <rect x="-49.775" y="-67.163" width="368.785" height="337.594" style="stroke:black;stroke-width:6.88px;"/>
        </g>
        <g transform="matrix(0.555337,0,0,0.606646,27.642,1269.54)">
            <rect x="-49.775" y="-67.163" width="368.785" height="337.594" style="stroke:black;stroke-width:6.88px;"/>
        </g>
        <g transform="matrix(0.555337,0,0,0.606646,846.842,1064.74)">
            <rect x="-49.775" y="-67.163" width="368.785" height="337.594" style="stroke:black;stroke-width:6.88px;"/>
        </g>
        <g transform="matrix(0.555337,0,0,0.606646,232.442,1064.74)">
            <rect x="-49.775" y="-67.163" width="368.785" height="337.594" style="stroke:black;stroke-width:6.88px;"/>
        </g>
        <g transform="matrix(0.555337,0,0,0.606646,27.642,1064.74)">
            <rect x="-49.775" y="-67.163" width="368.785" height="337.594" style="stroke:black;stroke-width:6.88px;"/>
        </g>
        <g transform="matrix(0.555337,0,0,0.606646,1051.64,1064.74)">
            <rect x="-49.775" y="-67.163" width="368.785" height="337.594" style="stroke:black;stroke-width:6.88px;"/>
        </g>
    </g>
</svg>
